<?xml version="1.0" standalone="no"?>
<!DOCTYPE svg PUBLIC "-//W3C//DTD SVG 20010904//EN"
 "http://www.w3.org/TR/2001/REC-SVG-20010904/DTD/svg10.dtd">
<svg version="1.0" xmlns="http://www.w3.org/2000/svg"
 width="360.000000pt" height="233.000000pt" viewBox="0 0 360.000000 233.000000"
 preserveAspectRatio="xMidYMid meet">

<g transform="translate(0.000000,233.000000) scale(0.100000,-0.100000)"
fill="#000000" stroke="none">
<path d="M2469 1965 c-1 -16 -3 -39 -3 -50 -1 -11 -4 -24 -7 -30 -6 -12 -3
-115 7 -199 6 -49 4 -60 -10 -68 -20 -11 -20 -27 0 -50 13 -13 18 -43 20 -113
4 -96 4 -96 -19 -90 -33 10 -39 20 -42 60 -2 44 -31 85 -72 105 -17 8 -35 26
-41 40 l-10 25 -1 -27 c-1 -16 -7 -28 -14 -28 -28 0 -69 -58 -74 -104 -6 -50
-16 -58 -33 -25 -7 11 -14 18 -17 15 -3 -3 -23 17 -44 44 -36 45 -38 52 -32
98 3 28 0 65 -6 85 -14 41 -78 103 -116 113 -15 4 -26 14 -26 25 -2 32 -4 37
-11 45 -5 4 -8 -5 -8 -20 0 -21 -7 -30 -34 -41 -86 -36 -129 -100 -129 -189 1
-64 -24 -125 -44 -105 -7 7 -15 -1 -26 -24 -13 -27 -26 -37 -59 -45 -23 -6
-44 -10 -45 -8 -11 10 151 367 208 459 17 27 28 52 25 55 -21 20 -158 -115
-195 -192 -28 -56 -51 -140 -51 -183 0 -55 -7 -62 -46 -50 -27 8 -46 7 -91 -7
-80 -26 -141 -89 -172 -181 -58 -172 -142 -183 -111 -14 6 34 22 92 35 128 29
79 20 99 -25 56 -17 -16 -46 -52 -66 -80 -81 -118 -44 -253 71 -257 32 -1 43
5 71 35 l33 35 15 -22 c8 -13 31 -31 51 -40 46 -22 93 -15 135 20 l30 25 24
-28 25 -28 38 20 c21 11 49 37 63 59 17 27 26 34 28 22 6 -26 22 -18 29 14 7
36 23 40 23 5 0 -14 5 -25 10 -25 6 0 10 11 10 24 0 14 5 28 10 31 6 4 10 -7
10 -24 0 -21 5 -31 15 -31 10 0 15 10 15 29 0 54 17 42 23 -16 3 -31 9 -59 14
-63 8 -7 81 -2 250 15 l72 7 4 -73 3 -74 2 73 c1 39 6 72 11 72 6 0 40 -7 77
-16 37 -8 73 -13 81 -10 28 11 8 40 -37 56 -41 14 -45 18 -42 45 2 17 5 31 5
31 1 1 22 4 47 5 l45 4 5 -115 5 -115 -70 -23 c-64 -22 -140 -60 -133 -67 2
-2 35 7 73 20 39 13 109 29 156 36 73 10 97 9 170 -6 46 -9 86 -18 88 -21 2
-2 -8 -31 -23 -64 -27 -60 -56 -173 -56 -222 0 -29 -44 -88 -66 -88 -27 0 -16
65 20 118 l33 50 -58 -2 c-69 -2 -103 -23 -137 -84 -15 -28 -30 -42 -43 -42
-20 0 -20 0 0 29 26 36 27 69 4 78 -10 4 -21 11 -25 17 -5 8 -16 7 -37 -1 -22
-8 -31 -8 -35 1 -7 16 -64 -48 -72 -81 -17 -69 -84 -115 -84 -58 0 35 23 86
49 109 30 27 27 31 -25 34 -59 2 -116 -28 -146 -77 -22 -35 -22 -35 -25 -11
-8 57 -14 72 -28 66 -8 -3 -19 2 -23 11 -7 12 -18 14 -40 10 l-31 -6 26 54 27
55 56 0 c93 1 170 39 170 84 0 26 -28 68 -40 61 -5 -3 -13 2 -18 11 -17 30
-68 7 -141 -61 l-67 -64 -31 19 c-17 10 -43 35 -59 55 -15 21 -30 32 -32 26
-6 -18 42 -74 80 -95 l35 -19 -29 -56 c-15 -31 -34 -88 -42 -126 -12 -68 -39
-125 -57 -125 -12 0 -11 15 6 85 8 33 14 68 15 78 0 36 -16 15 -35 -46 -14
-45 -27 -65 -45 -74 -22 -11 -26 -10 -39 14 -9 18 -12 44 -8 80 3 29 2 53 -3
53 -15 0 -42 -109 -35 -138 13 -53 56 -77 95 -52 10 6 20 4 33 -8 15 -13 21
-14 35 -4 9 7 24 15 33 18 8 3 21 25 27 49 23 87 102 138 102 66 0 -37 -18
-58 -60 -69 -28 -7 -35 -13 -35 -33 0 -35 49 -38 97 -5 41 28 78 41 78 29 0
-5 9 -19 20 -31 21 -23 74 -30 85 -12 3 5 19 7 36 3 20 -4 35 0 48 11 18 17
20 16 26 -3 11 -35 23 -24 36 36 13 57 50 113 75 113 17 0 17 -5 2 -46 -16
-45 11 -78 59 -72 20 3 33 0 33 -7 0 -33 88 -63 105 -35 3 5 19 7 36 3 21 -4
35 0 49 12 18 16 20 17 20 2 0 -33 18 -16 25 22 7 45 27 77 42 68 6 -4 13 -23
16 -43 8 -45 32 -74 64 -74 17 0 31 13 53 46 16 26 26 52 23 57 -4 7 -11 4
-17 -8 -6 -10 -23 -32 -37 -48 l-26 -31 -7 40 c-11 62 -16 74 -33 74 -28 0 -6
25 35 40 23 8 42 18 42 22 0 14 -33 8 -79 -12 -24 -11 -45 -19 -47 -18 -4 5
64 210 73 219 4 4 37 1 73 -8 40 -9 97 -13 147 -11 70 3 85 6 107 27 33 31 33
66 1 114 -64 93 -173 100 -267 18 -52 -45 -88 -37 -88 20 0 19 -10 35 -32 53
-29 23 -33 32 -39 93 -4 37 -12 104 -18 148 -8 58 -8 89 0 114 10 30 9 36 -11
51 -19 14 -22 27 -23 93 -2 41 -6 79 -10 83 -4 4 -7 24 -7 44 0 20 -3 40 -7
44 -4 4 -15 31 -25 59 -15 47 -17 49 -19 22z m31 -146 c0 -5 -4 -9 -10 -9 -5
0 -10 7 -10 16 0 8 5 12 10 9 6 -3 10 -10 10 -16z m20 -86 c0 -16 3 -45 7 -66
6 -37 5 -39 -18 -35 -22 3 -24 8 -27 66 -3 57 -1 62 18 62 15 0 20 -6 20 -27z
m-539 -6 c42 -27 79 -98 79 -149 0 -38 -8 -46 -25 -29 -28 28 -192 31 -257 6
-15 -6 -18 -1 -18 31 0 77 83 164 156 164 17 0 46 -10 65 -23z m-79 -175 c-7
-2 -10 -8 -7 -13 4 -5 -1 -6 -9 -3 -12 5 -13 9 -3 19 7 7 16 10 22 7 5 -3 4
-7 -3 -10z m604 -19 c-11 -11 -17 4 -9 23 7 18 8 18 11 1 2 -10 1 -21 -2 -24z
m34 17 c0 -11 -4 -20 -10 -20 -5 0 -10 9 -10 20 0 11 5 20 10 20 6 0 10 -9 10
-20z m-720 -5 c0 -8 -4 -15 -10 -15 -5 0 -7 7 -4 15 4 8 8 15 10 15 2 0 4 -7
4 -15z m37 0 c0 -17 -13 -20 -21 -6 -4 5 0 12 6 14 7 3 13 6 14 6 0 1 1 -6 1
-14z m141 -11 c15 -16 14 -16 -7 1 -24 20 -24 20 -17 1 6 -19 6 -19 -12 -3
-21 19 -37 23 -26 5 4 -7 3 -8 -5 -4 -6 4 -9 11 -6 16 9 14 55 4 73 -16z m-51
-31 c3 -9 -4 -12 -21 -11 -26 2 -32 9 -19 22 10 10 36 3 40 -11z m416 -11 c15
-15 29 -41 33 -57 l5 -30 -95 0 c-53 0 -96 3 -96 8 0 22 31 76 51 91 35 24 72
20 102 -12z m-585 -4 c2 -12 -3 -14 -23 -10 -21 3 -23 7 -14 19 14 17 33 12
37 -9z m320 -15 c2 -8 -6 -13 -22 -13 -19 0 -24 4 -19 15 6 18 34 16 41 -2z
m419 -25 c-3 -7 -5 -2 -5 12 0 14 2 19 5 13 2 -7 2 -19 0 -25z m-991 -80 c-14
-46 -26 -91 -26 -101 0 -34 -110 -92 -126 -65 -5 7 -3 8 6 3 8 -5 7 1 -3 16
-20 28 -22 78 -3 122 15 38 76 95 109 101 40 9 62 12 65 10 2 -1 -8 -40 -22
-86z m184 77 c0 -9 -6 -12 -15 -9 -8 4 -15 10 -15 15 0 5 7 9 15 9 8 0 15 -7
15 -15z m30 1 c0 -3 -4 -8 -10 -11 -5 -3 -10 -1 -10 4 0 6 5 11 10 11 6 0 10
-2 10 -4z m180 -15 c-8 -5 -35 -11 -60 -15 l-45 -5 45 13 c55 17 83 20 60 7z
m110 -21 c30 -12 61 -23 69 -26 11 -3 10 -9 -4 -30 -11 -17 -16 -40 -13 -64 3
-35 1 -39 -24 -42 -24 -4 -27 -1 -30 26 -2 20 -9 32 -20 34 -15 3 -18 -4 -18
-32 0 -32 -3 -36 -25 -36 l-25 0 6 83 c4 45 8 84 10 86 2 2 31 -6 65 -18 35
-12 68 -21 73 -20 6 0 -25 13 -69 29 -44 16 -73 29 -65 29 8 1 40 -8 70 -19z
m-100 -89 c0 -89 0 -89 -25 -87 -22 1 -25 6 -25 39 0 43 -26 62 -42 32 -8 -13
-12 -14 -18 -5 -5 8 -15 10 -26 5 -11 -5 -25 -7 -33 -6 -8 1 -18 -3 -23 -11
-8 -10 -11 -10 -15 0 -6 14 -33 16 -33 2 0 -5 -4 -10 -9 -10 -5 0 -7 8 -4 19
3 10 0 22 -5 25 -6 4 -27 -24 -47 -62 -33 -63 -73 -101 -89 -85 -10 10 -7 84
4 125 9 32 16 38 48 44 20 3 96 19 167 34 191 41 175 46 175 -59z m600 69
c-20 -13 -43 -13 -35 0 3 6 16 10 28 10 18 0 19 -2 7 -10z m-132 -172 c6 -114
6 -128 -9 -128 -20 0 -29 61 -29 192 0 60 4 88 13 91 15 5 16 1 25 -155z m151
131 c3 -23 2 -23 -15 -8 -11 9 -25 14 -31 12 -7 -3 -13 0 -13 5 0 11 27 21 45
17 6 -1 12 -12 14 -26z m-344 -4 c14 -13 25 -34 25 -47 0 -22 -4 -23 -70 -23
-75 0 -81 5 -58 48 27 51 66 60 103 22z m285 -6 c68 -31 70 -33 70 -68 0 -79
13 -171 24 -169 13 2 87 -12 99 -19 5 -3 1 -13 -8 -23 -15 -17 -19 -17 -93 7
-72 23 -114 43 -64 30 22 -5 23 -3 20 46 -3 50 -5 53 -38 63 -19 7 -37 11 -40
9 -3 -2 -3 -28 -2 -58 3 -43 7 -54 18 -50 8 3 14 1 14 -4 0 -5 -15 -10 -34
-11 l-33 -2 -7 61 c-7 73 -8 219 -1 219 3 0 36 -14 75 -31z m-160 2 c-25 -14
-90 -23 -90 -12 0 8 19 13 90 19 13 1 13 0 0 -7z m-466 -73 c-1 -18 -3 -35 -3
-37 -1 -3 -6 0 -12 6 -11 11 -2 63 11 63 4 0 6 -15 4 -32z m149 2 c-7 -28 -13
-25 -13 6 0 14 4 23 9 20 5 -3 7 -15 4 -26z m564 -17 c-3 -10 -5 -4 -5 12 0
17 2 24 5 18 2 -7 2 -21 0 -30z m57 -59 c27 -27 20 -44 -19 -44 -32 0 -35 2
-35 30 0 23 5 30 19 30 11 0 27 -7 35 -16z m-123 -36 c4 -16 3 -28 -2 -28 -5
0 -9 5 -9 11 0 6 -7 9 -15 5 -11 -4 -15 2 -15 20 0 35 31 28 41 -8z m423 -2
c43 -18 78 -63 74 -95 -6 -55 -118 -76 -251 -50 -72 15 -73 28 -7 90 66 64
122 81 184 55z m-942 -118 c28 -23 29 -48 3 -74 -20 -20 -34 -24 -80 -24 l-56
0 23 40 c13 22 37 46 53 55 37 18 38 18 57 3z m68 -285 c-11 -21 -20 -50 -20
-66 0 -31 -27 -48 -41 -26 -23 36 -1 92 46 117 33 19 36 14 15 -25z m420 4
c-11 -19 -21 -46 -22 -61 -5 -59 -48 -58 -48 0 0 38 44 94 74 94 13 0 12 -5
-4 -33z"/>
<path d="M1231 1904 c-131 -46 -250 -175 -285 -308 -17 -69 -21 -74 -64 -82
-32 -7 -33 -6 -25 22 13 46 9 186 -5 220 -14 34 -48 54 -89 54 -41 0 -112 -39
-128 -71 -47 -91 25 -223 133 -245 17 -4 32 -10 32 -15 0 -4 -17 -26 -38 -49
-35 -36 -44 -40 -88 -40 -28 0 -55 5 -60 10 -12 12 -44 3 -44 -11 0 -13 76
-49 104 -49 55 0 121 51 147 111 7 18 21 31 35 34 13 3 35 7 48 10 21 4 24 0
29 -33 4 -20 9 -52 13 -69 l7 -33 -55 0 c-117 0 -214 -54 -260 -144 -27 -53
-29 -163 -5 -220 25 -56 81 -122 131 -151 l43 -25 -5 -78 c-4 -65 -1 -85 16
-118 22 -42 49 -71 58 -61 3 3 -4 18 -16 34 -23 32 -37 120 -26 175 l6 34 69
-4 c58 -4 78 0 123 20 179 82 244 277 101 304 -77 14 -197 -70 -263 -184 -19
-34 -40 -63 -47 -66 -7 -3 -22 4 -35 15 -13 11 -17 17 -10 14 8 -4 -2 16 -22
45 -92 134 -67 280 60 352 53 29 117 39 161 24 21 -8 21 -6 17 51 -3 32 -1 78
3 103 8 41 14 49 70 85 94 62 156 118 212 192 59 80 71 116 45 144 -20 23 -35
23 -93 3z m79 -24 c0 -27 -46 -97 -108 -161 -63 -67 -160 -144 -170 -134 -9 9
50 111 99 173 72 90 179 163 179 122z m-496 -103 c25 -18 32 -142 13 -212 -15
-58 -35 -66 -93 -39 -43 21 -71 63 -80 121 -8 53 16 98 66 124 41 22 69 24 94
6z m345 -683 c51 -36 4 -153 -89 -219 -37 -27 -51 -30 -118 -32 -42 0 -84 3
-92 8 -10 5 -11 8 -2 9 6 0 12 7 12 15 0 47 115 179 185 211 60 28 73 29 104
8z"/>
<path d="M1221 1664 c-12 -15 -21 -33 -21 -41 0 -22 55 -73 79 -73 35 0 71 22
78 47 6 27 -11 73 -27 73 -6 0 -8 -5 -4 -11 4 -7 -1 -7 -16 1 -18 10 -20 14
-9 21 10 6 2 9 -23 9 -28 0 -42 -6 -57 -26z"/>
<path d="M1530 1098 c-11 -18 -42 -89 -69 -158 -26 -69 -52 -134 -57 -145 -6
-13 -10 34 -12 138 -1 86 -6 157 -10 157 -4 0 -25 -71 -46 -157 -66 -269 -119
-386 -191 -420 -41 -19 -59 -13 -85 29 -43 70 -38 188 10 241 l28 32 -5 -61
c-6 -72 7 -107 40 -102 45 6 66 118 28 152 -11 10 -17 24 -14 32 7 19 74 65
85 58 12 -7 10 -62 -3 -86 -14 -27 -1 -38 17 -14 17 24 18 88 2 104 -21 21
-47 13 -91 -27 -23 -21 -55 -44 -71 -52 -49 -23 -71 -73 -70 -154 3 -151 89
-235 183 -179 58 34 107 141 135 294 34 185 34 184 35 89 1 -57 6 -92 15 -105
20 -27 30 -14 66 90 17 49 49 125 71 170 39 81 39 81 35 36 -3 -25 -26 -110
-52 -190 -25 -80 -54 -183 -64 -230 l-17 -84 -115 -46 c-113 -45 -174 -77
-165 -86 3 -3 38 11 78 30 120 57 200 86 204 73 2 -7 6 -29 10 -49 7 -43 56
-91 83 -81 52 18 126 130 120 181 -3 23 -8 27 -40 30 -20 2 -53 -4 -74 -13
-20 -8 -38 -14 -40 -12 -3 3 22 128 65 327 32 146 36 210 14 217 -7 3 -22 -10
-33 -29z m-372 -342 c3 -49 -19 -102 -38 -91 -6 4 -10 29 -10 56 0 93 42 123
48 35z m464 -186 c-5 -37 -66 -133 -96 -150 -34 -20 -47 -5 -54 58 -6 65 8 88
66 106 66 21 88 17 84 -14z"/>
<path d="M2035 589 c-157 -16 -322 -67 -362 -111 -10 -12 -13 -19 -8 -16 6 2
32 14 58 27 26 12 80 29 120 38 102 23 401 23 577 1 150 -19 429 -34 418 -23
-3 4 -64 13 -135 21 -70 8 -195 25 -278 39 -191 30 -278 35 -390 24z"/>
</g>
</svg>
